<svg xmlns="http://www.w3.org/2000/svg" viewBox="0 0 24 24"><path d="M12.5 24a.492.492 0 0 1-.137-.019l-7-2a.502.502 0 0 1-.361-.434l-1.5-16A.503.503 0 0 1 4 5h16a.498.498 0 0 1 .498.547l-1.5 16a.5.5 0 0 1-.34.427l-6 2A.503.503 0 0 1 12.5 24zm-6.534-2.887 6.523 1.863 5.544-1.848L19.451 6H4.549l1.417 15.113z"/><path d="M12.5 20a.492.492 0 0 1-.137-.019l-3.5-1a.5.5 0 0 1-.348-.36l-.5-2a.5.5 0 1 1 .97-.242l.43 1.72 3.085.881 3.04-.869.901-8.111H7.5a.5.5 0 0 1 0-1H17a.502.502 0 0 1 .498.556l-1 9a.5.5 0 0 1-.36.426l-3.5 1A.545.545 0 0 1 12.5 20z"/><path d="M16.5 14H8a.5.5 0 0 1 0-1h8.5a.5.5 0 0 1 0 1zM9 3H7a.5.5 0 0 1-.5-.5v-2A.5.5 0 0 1 7 0h2a.5.5 0 0 1 0 1H7.5v1H9a.5.5 0 0 1 0 1zM13 3h-2a.5.5 0 0 1 0-1h.793L10.647.854A.499.499 0 0 1 11 0h2a.5.5 0 0 1 0 1h-.793l1.146 1.146A.499.499 0 0 1 13 3zM17 3h-2a.5.5 0 0 1 0-1h.793L14.647.854A.499.499 0 0 1 15 0h2a.5.5 0 0 1 0 1h-.793l1.146 1.146A.499.499 0 0 1 17 3z"/></svg>