<svg xmlns="http://www.w3.org/2000/svg" width="24" height="24" viewBox="0 0 24 24"><path d="M6.54 16.74a1 1 0 1 1 1.253-1.558l2.12 1.706a1 1 0 0 1 .328 1.077c-.273.872-.475 1.525-.606 1.958l-.14.473c-.086.496-.44.894-1.001.894-.15-.051-.27-.092-.37-.128C4.435 19.657 2 16.052 2 11.999 2 6.477 6.477 2 12 2s10 4.477 10 10a10 10 0 0 1-6.104 9.21c-.136.054-.266.08-.39.08-.562 0-.915-.398-.987-.841a89.225 89.225 0 0 0-.38-1.264 725.22 725.22 0 0 0-1.316-4.196 1 1 0 0 1 .501-1.193c1.18-.598 1.676-1.197 1.676-1.797 0-.326-.125-.648-.372-.946a1 1 0 0 1-.202-.882l.018-.072-.13.078a1 1 0 0 1-.868.078A4.097 4.097 0 0 0 12 9.999c-.514 0-1.006.09-1.446.256a1 1 0 0 1-.868-.078l-.13-.078.018.072a1 1 0 0 1-.202.882c-.247.298-.372.62-.372.946 0 .6.495 1.199 1.676 1.797a1 1 0 1 1-.904 1.784C7.987 14.676 7 13.483 7 12c0-.637.183-1.247.521-1.792L7.03 8.242c-.216-.864.72-1.558 1.484-1.1l1.81 1.085A6.194 6.194 0 0 1 12 8c.578 0 1.143.077 1.677.227l1.809-1.085c.763-.458 1.7.236 1.484 1.1l-.491 1.966c.338.545.521 1.155.521 1.791 0 1.262-.715 2.314-2.027 3.157a631.441 631.441 0 0 1 1.156 3.697A8 8 0 0 0 12 4a8 8 0 0 0-4.128 14.853l.258-.834-1.59-1.28z"/></svg>