<svg xmlns="http://www.w3.org/2000/svg" viewBox="0 0 24 24"><path fill="#595bd4" d="M12 23.5c-.3 0-.7-.1-1-.3l-4.6-2.7c-.5-.3-.9-.8-.9-1.4L4 9.1c0-.6.1-1.1.5-1.6.4-.4.9-.7 1.5-.7h12.1c.6 0 1.1.2 1.4.7.4.5.5 1 .5 1.6l-1.4 10.1c-.1.6-.4 1.1-.9 1.4L13 23.2c-.3.2-.7.3-1 .3zM5.9 7.9c-.2 0-.5.1-.7.3-.1.2-.2.5-.2.7L6.4 19c0 .3.2.5.5.7l4.6 2.7c.3.2.6.2.9 0l4.6-2.7c.2-.1.4-.4.5-.7L19 8.9c0-.3 0-.5-.2-.7-.2-.2-.4-.3-.7-.3H5.9z" class="color000000 svgShape"/><path fill="#595bd4" d="M8.5 14.7c-.2 0-.5-.2-.5-.4l-.5-3.6c0-.1 0-.3.1-.4.1-.1.2-.2.4-.2h8c.3 0 .5.2.5.5s-.2.5-.5.5H8.5l.4 3c.1.3-.1.5-.4.6zM12 19.6c-.1 0-.2 0-.2-.1l-3.1-1.8c-.1-.1-.2-.2-.2-.4l-.1-1c0-.3.2-.5.4-.6.3 0 .5.2.6.4v.9l2.6 1.5 2.6-1.5.4-2.9c0-.3.3-.5.6-.4.3 0 .5.3.4.6l-.4 3.1c0 .2-.1.3-.2.4l-3.1 1.8H12z" class="color000000 svgShape"/><path fill="#595bd4" d="M15.5 14.7h-7c-.3 0-.5-.2-.5-.5s.2-.5.5-.5h7.1c.3 0 .5.2.5.5s-.3.5-.6.5zM7.2 3.7H5.1c-.3 0-.5-.2-.5-.5V1c0-.3.2-.5.5-.5s.5.2.5.5v1.7h1.2V1c0-.3.2-.5.5-.5s.4.2.4.5v2.2c0 .3-.2.5-.5.5z" class="color000000 svgShape"/><path fill="#595bd4" d="M7.2 5.9c-.2 0-.5-.3-.5-.5V3.7H5.6v1.7c0 .3-.2.5-.5.5s-.5-.3-.5-.5V3.2c0-.3.2-.5.5-.5h2.2c.3 0 .5.2.5.5v2.2c-.1.2-.3.5-.6.5zM10.8 1.5H8.6c-.3 0-.5-.2-.5-.5s.2-.5.5-.5h2.2c.3 0 .5.2.5.5s-.2.5-.5.5z" class="color000000 svgShape"/><path fill="#595bd4" d="M9.7 3.7c-.3 0-.5-.2-.5-.5V1c0-.3.2-.5.5-.5s.5.2.5.5v2.2c0 .3-.2.5-.5.5z" class="color000000 svgShape"/><path fill="#595bd4" d="M9.7 5.9c-.3 0-.5-.2-.5-.5V3.2c0-.3.2-.5.5-.5s.5.2.5.5v2.2c0 .2-.2.5-.5.5zM16.8 3.7c-.3 0-.5-.2-.5-.5V1c0-.3.2-.5.5-.5s.5.2.5.5v2.2c0 .3-.3.5-.5.5z" class="color000000 svgShape"/><path fill="#595bd4" d="M18.9 5.9h-2.2c-.3 0-.5-.2-.5-.5V3.2c0-.3.2-.5.5-.5s.5.2.5.5v1.7h1.7c.3 0 .5.2.5.5s-.2.5-.5.5zM12.1 3.7c-.3 0-.5-.2-.5-.5V1c0-.3.2-.5.5-.5h4.6c.3 0 .5.2.5.5s-.2.5-.4.5h-4.1v1.7c-.1.3-.3.5-.6.5z" class="color000000 svgShape"/><path fill="#595bd4" d="M12.1 5.9c-.3 0-.5-.2-.5-.5V3.2c0-.3.2-.5.5-.5s.5.2.5.5v2.2c0 .2-.2.5-.5.5zM14.4 3.7c-.3 0-.5-.2-.5-.5V1c0-.3.2-.5.5-.5s.5.2.5.5v2.2c0 .3-.2.5-.5.5z" class="color000000 svgShape"/><path fill="#595bd4" d="M14.4 5.9c-.3 0-.5-.2-.5-.5V3.2c0-.3.2-.5.5-.5s.5.2.5.5v2.2c0 .2-.2.5-.5.5z" class="color000000 svgShape"/></svg>